<mxfile host="app.diagrams.net" agent="Mozilla/5.0 (Windows NT 10.0; Win64; x64) AppleWebKit/537.36 (KHTML, like Gecko) Chrome/131.0.0.0 Safari/537.36" version="25.0.3">
  <diagram name="Page-1" id="Wh1WpaTJLGNhcIk0ObMR">
    <mxGraphModel dx="1702" dy="435" grid="1" gridSize="10" guides="1" tooltips="1" connect="1" arrows="1" fold="1" page="1" pageScale="1" pageWidth="827" pageHeight="1169" math="0" shadow="0">
      <root>
        <mxCell id="0" />
        <mxCell id="1" parent="0" />
        <mxCell id="U8cge1n6jvuiJpbnIPh0-3" style="edgeStyle=orthogonalEdgeStyle;rounded=0;orthogonalLoop=1;jettySize=auto;html=1;exitX=0.5;exitY=1;exitDx=0;exitDy=0;" edge="1" parent="1" source="U8cge1n6jvuiJpbnIPh0-1">
          <mxGeometry relative="1" as="geometry">
            <mxPoint x="260" y="180" as="targetPoint" />
          </mxGeometry>
        </mxCell>
        <mxCell id="U8cge1n6jvuiJpbnIPh0-1" value="Create User" style="rounded=0;whiteSpace=wrap;html=1;fontStyle=1;" vertex="1" parent="1">
          <mxGeometry x="200" y="10" width="120" height="60" as="geometry" />
        </mxCell>
        <mxCell id="U8cge1n6jvuiJpbnIPh0-4" value="" style="shape=actor;whiteSpace=wrap;html=1;" vertex="1" parent="1">
          <mxGeometry x="210" y="180" width="90" height="80" as="geometry" />
        </mxCell>
        <mxCell id="U8cge1n6jvuiJpbnIPh0-6" style="edgeStyle=orthogonalEdgeStyle;rounded=0;orthogonalLoop=1;jettySize=auto;html=1;exitX=0;exitY=0.25;exitDx=0;exitDy=0;" edge="1" parent="1" source="U8cge1n6jvuiJpbnIPh0-5">
          <mxGeometry relative="1" as="geometry">
            <mxPoint x="260" y="110" as="targetPoint" />
          </mxGeometry>
        </mxCell>
        <mxCell id="U8cge1n6jvuiJpbnIPh0-5" value="POST/Signup" style="whiteSpace=wrap;html=1;" vertex="1" parent="1">
          <mxGeometry x="270" y="90" width="120" height="30" as="geometry" />
        </mxCell>
        <mxCell id="U8cge1n6jvuiJpbnIPh0-9" style="edgeStyle=orthogonalEdgeStyle;rounded=0;orthogonalLoop=1;jettySize=auto;html=1;exitX=1;exitY=0.75;exitDx=0;exitDy=0;entryX=0;entryY=0.75;entryDx=0;entryDy=0;" edge="1" parent="1" source="U8cge1n6jvuiJpbnIPh0-7" target="U8cge1n6jvuiJpbnIPh0-4">
          <mxGeometry relative="1" as="geometry">
            <mxPoint x="200.00000000000023" y="245" as="targetPoint" />
            <Array as="points">
              <mxPoint x="150" y="245" />
              <mxPoint x="150" y="240" />
            </Array>
          </mxGeometry>
        </mxCell>
        <mxCell id="U8cge1n6jvuiJpbnIPh0-7" value="Login of Existing User" style="whiteSpace=wrap;html=1;fontStyle=1;" vertex="1" parent="1">
          <mxGeometry x="-30" y="200" width="120" height="60" as="geometry" />
        </mxCell>
        <mxCell id="U8cge1n6jvuiJpbnIPh0-11" style="edgeStyle=orthogonalEdgeStyle;rounded=0;orthogonalLoop=1;jettySize=auto;html=1;exitX=0.5;exitY=1;exitDx=0;exitDy=0;" edge="1" parent="1" source="U8cge1n6jvuiJpbnIPh0-10">
          <mxGeometry relative="1" as="geometry">
            <mxPoint x="149.66666666666674" y="240" as="targetPoint" />
          </mxGeometry>
        </mxCell>
        <mxCell id="U8cge1n6jvuiJpbnIPh0-10" value="POST/Login" style="whiteSpace=wrap;html=1;" vertex="1" parent="1">
          <mxGeometry x="100" y="200" width="100" height="30" as="geometry" />
        </mxCell>
      </root>
    </mxGraphModel>
  </diagram>
</mxfile>
